<svg width="35" height="34" viewBox="0 0 35 34" fill="none" xmlns="http://www.w3.org/2000/svg">
<path d="M32.0833 17C32.0833 24.8236 25.5536 31.1667 17.5 31.1667C9.44631 31.1667 2.91663 24.8236 2.91663 17C2.91663 9.17647 9.44631 2.83334 17.5 2.83334C25.5536 2.83334 32.0833 9.17647 32.0833 17Z" fill="url(#paint0_linear_57_2585)"/>
<path opacity="0.05" d="M24.7917 14.875H19.6875V9.91667C19.6875 9.13396 19.0349 8.5 18.2292 8.5H16.7708C15.9651 8.5 15.3125 9.13396 15.3125 9.91667V14.875H10.2083C9.4026 14.875 8.75 15.509 8.75 16.2917V17.7083C8.75 18.491 9.4026 19.125 10.2083 19.125H15.3125V24.0833C15.3125 24.866 15.9651 25.5 16.7708 25.5H18.2292C19.0349 25.5 19.6875 24.866 19.6875 24.0833V19.125H24.7917C25.5974 19.125 26.25 18.491 26.25 17.7083V16.2917C26.25 15.509 25.5974 14.875 24.7917 14.875Z" fill="black"/>
<path opacity="0.07" d="M24.7917 15.2292H19.323V9.91666C19.323 9.33016 18.833 8.85416 18.2292 8.85416H16.7709C16.1671 8.85416 15.6771 9.33016 15.6771 9.91666V15.2292H10.2084C9.60462 15.2292 9.11462 15.7052 9.11462 16.2917V17.7083C9.11462 18.2948 9.60462 18.7708 10.2084 18.7708H15.6771V24.0833C15.6771 24.6698 16.1671 25.1458 16.7709 25.1458H18.2292C18.833 25.1458 19.323 24.6698 19.323 24.0833V18.7708H24.7917C25.3955 18.7708 25.8855 18.2948 25.8855 17.7083V16.2917C25.8855 15.7052 25.3955 15.2292 24.7917 15.2292Z" fill="black"/>
<path d="M16.7708 9.20834H18.2291C18.6316 9.20834 18.9583 9.52568 18.9583 9.91668V24.0833C18.9583 24.4743 18.6316 24.7917 18.2291 24.7917H16.7708C16.3683 24.7917 16.0416 24.4743 16.0416 24.0833V9.91668C16.0416 9.52568 16.3683 9.20834 16.7708 9.20834Z" fill="white"/>
<path d="M25.5208 16.2917V17.7083C25.5208 18.0993 25.1941 18.4167 24.7916 18.4167H10.2083C9.80579 18.4167 9.47913 18.0993 9.47913 17.7083V16.2917C9.47913 15.9007 9.80579 15.5833 10.2083 15.5833H24.7916C25.1941 15.5833 25.5208 15.9007 25.5208 16.2917Z" fill="white"/>
<defs>
<linearGradient id="paint0_linear_57_2585" x1="7.18808" y1="6.98276" x2="27.2142" y2="27.5978" gradientUnits="userSpaceOnUse">
<stop stop-color="#21AD64"/>
<stop offset="1" stop-color="#088242"/>
</linearGradient>
</defs>
</svg>
