<svg width="73" height="102" viewBox="0 0 73 102" fill="none" xmlns="http://www.w3.org/2000/svg">
<g clip-path="url(#clip0_68_2736)">
<path d="M45.613 53.165H26.548C17.147 53.165 9.49805 45.516 9.49805 36.114V26.582C9.49905 11.925 21.423 0 36.081 0C50.739 0 62.664 11.925 62.664 26.582V36.114C62.664 45.516 55.014 53.165 45.613 53.165ZM36.081 7C25.283 7 16.499 15.784 16.499 26.582V36.114C16.499 41.656 21.008 46.165 26.549 46.165H45.613C51.155 46.165 55.664 41.656 55.664 36.114V26.582C55.664 15.784 46.879 7 36.081 7Z" fill="#A1C3FC"/>
<path d="M50.981 101.524H21.181C9.483 101.524 0 92.041 0 80.343V50.544C0 38.846 9.483 29.363 21.181 29.363H50.98C62.678 29.363 72.161 38.846 72.161 50.544V80.343C72.162 92.041 62.679 101.524 50.981 101.524Z" fill="url(#paint0_linear_68_2736)"/>
<path d="M46.733 94.592H19.811C9.33898 94.592 0.849976 86.103 0.849976 75.631V49.201C0.849976 38.729 9.33898 30.24 19.811 30.24H46.733C57.205 30.24 65.694 38.729 65.694 49.201V75.631C65.694 86.103 57.205 94.592 46.733 94.592Z" fill="#A1C3FC"/>
<path d="M36.081 79.6959C32.644 79.6959 29.832 76.8839 29.832 73.4469V51.8779C29.832 48.4409 32.644 45.6289 36.081 45.6289C39.518 45.6289 42.33 48.4409 42.33 51.8779V73.4469C42.33 76.8839 39.518 79.6959 36.081 79.6959Z" fill="#23286B"/>
</g>
<defs>
<linearGradient id="paint0_linear_68_2736" x1="0" y1="65.4436" x2="72.1618" y2="65.4436" gradientUnits="userSpaceOnUse">
<stop stop-color="#A1C3FC"/>
<stop offset="1" stop-color="#78A9EF"/>
</linearGradient>
<clipPath id="clip0_68_2736">
<rect width="72.162" height="101.524" fill="white"/>
</clipPath>
</defs>
</svg>
