<?xml version="1.0" standalone="no"?><svg xmlns="http://www.w3.org/2000/svg" viewBox="0 0 1440 320"><path fill="#273036" fill-opacity="1" d="M0,288L14.1,261.3C28.2,235,56,181,85,144C112.9,107,141,85,169,96C197.6,107,226,149,254,181.3C282.4,213,311,235,339,234.7C367.1,235,395,213,424,197.3C451.8,181,480,171,508,170.7C536.5,171,565,181,593,165.3C621.2,149,649,107,678,106.7C705.9,107,734,149,762,149.3C790.6,149,819,107,847,90.7C875.3,75,904,85,932,112C960,139,988,181,1016,192C1044.7,203,1073,181,1101,170.7C1129.4,160,1158,160,1186,186.7C1214.1,213,1242,267,1271,256C1298.8,245,1327,171,1355,117.3C1383.5,64,1412,32,1426,16L1440,0L1440,320L1425.9,320C1411.8,320,1384,320,1355,320C1327.1,320,1299,320,1271,320C1242.4,320,1214,320,1186,320C1157.6,320,1129,320,1101,320C1072.9,320,1045,320,1016,320C988.2,320,960,320,932,320C903.5,320,875,320,847,320C818.8,320,791,320,762,320C734.1,320,706,320,678,320C649.4,320,621,320,593,320C564.7,320,536,320,508,320C480,320,452,320,424,320C395.3,320,367,320,339,320C310.6,320,282,320,254,320C225.9,320,198,320,169,320C141.2,320,113,320,85,320C56.5,320,28,320,14,320L0,320Z"></path></svg>